<?xml version="1.0" standalone="no"?>
<svg viewBox="0 0 200 200" xmlns="http://www.w3.org/2000/svg">
  <path fill="#5810ff" d="M43.4,-61.5C55.6,-50.9,64.4,-37.3,71.5,-21.8C78.6,-6.2,84,11.4,79.7,26.3C75.5,41.2,61.6,53.4,46.7,62.3C31.8,71.2,15.9,76.9,0.5,76.1C-14.8,75.4,-29.6,68.3,-44.3,59.3C-58.9,50.3,-73.4,39.4,-81.7,24.1C-90.1,8.8,-92.3,-11,-86.1,-27.3C-79.9,-43.6,-65.1,-56.5,-49.4,-66C-33.6,-75.4,-16.8,-81.4,-0.6,-80.6C15.6,-79.7,31.2,-72.1,43.4,-61.5Z" transform="translate(100 100)" />
</svg>
