<?xml version="1.0" standalone="no"?>
<svg viewBox="0 0 200 200" xmlns="http://www.w3.org/2000/svg">
  <path fill="#5810ff" d="M43,-57.3C55.3,-50.2,64.4,-37.1,71.5,-21.7C78.5,-6.4,83.4,11.1,77.7,24.1C71.9,37.2,55.6,45.6,40.9,56.9C26.2,68.1,13.1,82.2,-1.3,83.9C-15.6,85.6,-31.2,75.1,-44.4,63.3C-57.6,51.6,-68.3,38.6,-74.1,23.5C-79.9,8.3,-80.7,-9.1,-75.9,-24.9C-71.1,-40.7,-60.6,-54.9,-47,-61.5C-33.4,-68.1,-16.7,-67.1,-0.7,-66.2C15.4,-65.2,30.7,-64.3,43,-57.3Z" transform="translate(100 100)" />
</svg>
