<svg width="1515" height="660" viewBox="0 0 1515 660" fill="none" xmlns="http://www.w3.org/2000/svg">
<g opacity="0.8">
<mask id="mask0_168_4188" style="mask-type:alpha" maskUnits="userSpaceOnUse" x="374" y="-108" width="768" height="768">
<rect width="768" height="768" transform="translate(374 -108)" fill="url(#paint0_radial_168_4188)"/>
</mask>
<g mask="url(#mask0_168_4188)">
<g clip-path="url(#clip0_168_4188)">
<g opacity="0.5">
<g clip-path="url(#clip1_168_4188)">
<line x1="374.3" y1="-108" x2="374.3" y2="660" stroke="#5810FF" stroke-width="0.6"/>
<line x1="422.3" y1="-108" x2="422.3" y2="660" stroke="#5810FF" stroke-width="0.6"/>
<line x1="470.3" y1="-108" x2="470.3" y2="660" stroke="#5810FF" stroke-width="0.6"/>
<line x1="518.3" y1="-108" x2="518.3" y2="660" stroke="#5810FF" stroke-width="0.6"/>
<line x1="566.3" y1="-108" x2="566.3" y2="660" stroke="#5810FF" stroke-width="0.6"/>
<line x1="614.3" y1="-108" x2="614.3" y2="660" stroke="#5810FF" stroke-width="0.6"/>
<line x1="662.3" y1="-108" x2="662.3" y2="660" stroke="#5810FF" stroke-width="0.6"/>
<line x1="710.3" y1="-108" x2="710.3" y2="660" stroke="#5810FF" stroke-width="0.6"/>
<line x1="758.3" y1="-108" x2="758.3" y2="660" stroke="#5810FF" stroke-width="0.6"/>
<line x1="806.3" y1="-108" x2="806.3" y2="660" stroke="#5810FF" stroke-width="0.6"/>
<line x1="854.3" y1="-108" x2="854.3" y2="660" stroke="#5810FF" stroke-width="0.6"/>
<line x1="902.3" y1="-108" x2="902.3" y2="660" stroke="#5810FF" stroke-width="0.6"/>
<line x1="950.3" y1="-108" x2="950.3" y2="660" stroke="#5810FF" stroke-width="0.6"/>
<line x1="998.3" y1="-108" x2="998.3" y2="660" stroke="#5810FF" stroke-width="0.6"/>
<line x1="1046.3" y1="-108" x2="1046.3" y2="660" stroke="#5810FF" stroke-width="0.6"/>
<line x1="1094.3" y1="-108" x2="1094.3" y2="660" stroke="#5810FF" stroke-width="0.6"/>
</g>
<rect x="374.5" y="-107.5" width="767" height="767" stroke="#1F242F"/>
</g>
<g opacity="0.5">
<g clip-path="url(#clip2_168_4188)">
<line x1="374" y1="35.7" x2="1142" y2="35.7" stroke="#5B28FF" stroke-width="0.6"/>
<line x1="374" y1="83.7" x2="1142" y2="83.7" stroke="#5B28FF" stroke-width="0.6"/>
<line x1="374" y1="131.7" x2="1142" y2="131.7" stroke="#5B28FF" stroke-width="0.6"/>
<line x1="374" y1="179.7" x2="1142" y2="179.7" stroke="#5810FF" stroke-width="0.6"/>
<line x1="374" y1="227.7" x2="1142" y2="227.7" stroke="#5B28FF" stroke-width="0.6"/>
<line x1="374" y1="275.7" x2="1142" y2="275.7" stroke="#5B28FF" stroke-width="0.6"/>
<line x1="374" y1="323.7" x2="1142" y2="323.7" stroke="#5B28FF" stroke-width="0.6"/>
<line x1="374" y1="371.7" x2="1142" y2="371.7" stroke="#5B28FF" stroke-width="0.6"/>
<line x1="374" y1="419.7" x2="1142" y2="419.7" stroke="#5B28FF" stroke-width="0.6"/>
<line x1="374" y1="467.7" x2="1142" y2="467.7" stroke="#5B28FF" stroke-width="0.6"/>
<line x1="374" y1="515.7" x2="1142" y2="515.7" stroke="#5B28FF" stroke-width="0.6"/>
<line x1="374" y1="563.7" x2="1142" y2="563.7" stroke="#5B28FF" stroke-width="0.6"/>
<line x1="374" y1="611.7" x2="1142" y2="611.7" stroke="#5B28FF" stroke-width="0.6"/>
<line x1="374" y1="659.7" x2="1142" y2="659.7" stroke="#5B28FF" stroke-width="0.6"/>
</g>
<rect x="374.5" y="-107.5" width="767" height="767" stroke="#1F242F"/>
</g>
</g>
<path d="M758 168L758 192" stroke="url(#paint1_linear_168_4188)"/>
<path d="M770 180L746 180" stroke="url(#paint2_linear_168_4188)"/>
<path d="M614 268L614 284" stroke="url(#paint3_linear_168_4188)"/>
<path d="M626 276L602 276" stroke="url(#paint4_linear_168_4188)"/>
<path d="M999 410L999 428" stroke="url(#paint5_linear_168_4188)"/>
<path d="M1008 419L990 419" stroke="url(#paint6_linear_168_4188)"/>
<path d="M950 268L950 284" stroke="url(#paint7_linear_168_4188)"/>
<path d="M958 276L942 276" stroke="url(#paint8_linear_168_4188)"/>
<path d="M567 363L567 381" stroke="url(#paint9_linear_168_4188)"/>
<path d="M576 372L558 372" stroke="url(#paint10_linear_168_4188)"/>
<path d="M951 120L951 144" stroke="url(#paint11_linear_168_4188)"/>
<path d="M963 132L939 132" stroke="url(#paint12_linear_168_4188)"/>
<path d="M854 215L854 239" stroke="url(#paint13_linear_168_4188)"/>
<path d="M866 227L842 227" stroke="url(#paint14_linear_168_4188)"/>
<circle cx="662" cy="228" r="2" fill="#5810FF"/>
<circle cx="854" cy="132" r="2" fill="#5810FF"/>
<circle cx="903" cy="324" r="2" fill="#5810FF"/>
<circle cx="518" cy="276" r="2" fill="#5810FF"/>
<rect x="902" y="180" width="49" height="48" fill="#5810FF" fill-opacity="0.36"/>
<rect x="470" y="324" width="49" height="48" fill="#5810FF" fill-opacity="0.36"/>
<rect x="999" y="324" width="49" height="48" fill="#5810FF"/>
</g>
</g>
<defs>
<radialGradient id="paint0_radial_168_4188" cx="0" cy="0" r="1" gradientUnits="userSpaceOnUse" gradientTransform="translate(384 384) rotate(90) scale(384 384)">
<stop/>
<stop offset="1" stop-opacity="0"/>
</radialGradient>
<linearGradient id="paint1_linear_168_4188" x1="758" y1="192" x2="758" y2="168" gradientUnits="userSpaceOnUse">
<stop stop-color="white" stop-opacity="0"/>
<stop offset="0.50284" stop-color="white"/>
<stop offset="1" stop-color="white" stop-opacity="0"/>
</linearGradient>
<linearGradient id="paint2_linear_168_4188" x1="746" y1="180" x2="770" y2="180" gradientUnits="userSpaceOnUse">
<stop stop-color="white" stop-opacity="0"/>
<stop offset="0.50284" stop-color="white"/>
<stop offset="1" stop-color="white" stop-opacity="0"/>
</linearGradient>
<linearGradient id="paint3_linear_168_4188" x1="614" y1="284" x2="614" y2="268" gradientUnits="userSpaceOnUse">
<stop stop-color="white" stop-opacity="0"/>
<stop offset="0.50284" stop-color="white"/>
<stop offset="1" stop-color="white" stop-opacity="0"/>
</linearGradient>
<linearGradient id="paint4_linear_168_4188" x1="602" y1="276" x2="626" y2="276" gradientUnits="userSpaceOnUse">
<stop stop-color="white" stop-opacity="0"/>
<stop offset="0.50284" stop-color="white"/>
<stop offset="1" stop-color="white" stop-opacity="0"/>
</linearGradient>
<linearGradient id="paint5_linear_168_4188" x1="999" y1="428" x2="999" y2="410" gradientUnits="userSpaceOnUse">
<stop stop-color="white" stop-opacity="0"/>
<stop offset="0.50284" stop-color="white"/>
<stop offset="1" stop-color="white" stop-opacity="0"/>
</linearGradient>
<linearGradient id="paint6_linear_168_4188" x1="990" y1="419" x2="1008" y2="419" gradientUnits="userSpaceOnUse">
<stop stop-color="white" stop-opacity="0"/>
<stop offset="0.50284" stop-color="white"/>
<stop offset="1" stop-color="white" stop-opacity="0"/>
</linearGradient>
<linearGradient id="paint7_linear_168_4188" x1="950" y1="284" x2="950" y2="268" gradientUnits="userSpaceOnUse">
<stop stop-color="white" stop-opacity="0"/>
<stop offset="0.50284" stop-color="white"/>
<stop offset="1" stop-color="white" stop-opacity="0"/>
</linearGradient>
<linearGradient id="paint8_linear_168_4188" x1="942" y1="276" x2="958" y2="276" gradientUnits="userSpaceOnUse">
<stop stop-color="white" stop-opacity="0"/>
<stop offset="0.50284" stop-color="white"/>
<stop offset="1" stop-color="white" stop-opacity="0"/>
</linearGradient>
<linearGradient id="paint9_linear_168_4188" x1="567" y1="381" x2="567" y2="363" gradientUnits="userSpaceOnUse">
<stop stop-color="white" stop-opacity="0"/>
<stop offset="0.50284" stop-color="white"/>
<stop offset="1" stop-color="white" stop-opacity="0"/>
</linearGradient>
<linearGradient id="paint10_linear_168_4188" x1="558" y1="372" x2="576" y2="372" gradientUnits="userSpaceOnUse">
<stop stop-color="white" stop-opacity="0"/>
<stop offset="0.50284" stop-color="white"/>
<stop offset="1" stop-color="white" stop-opacity="0"/>
</linearGradient>
<linearGradient id="paint11_linear_168_4188" x1="951" y1="144" x2="951" y2="120" gradientUnits="userSpaceOnUse">
<stop stop-color="white" stop-opacity="0"/>
<stop offset="0.50284" stop-color="white"/>
<stop offset="1" stop-color="white" stop-opacity="0"/>
</linearGradient>
<linearGradient id="paint12_linear_168_4188" x1="939" y1="132" x2="963" y2="132" gradientUnits="userSpaceOnUse">
<stop stop-color="white" stop-opacity="0"/>
<stop offset="0.50284" stop-color="white"/>
<stop offset="1" stop-color="white" stop-opacity="0"/>
</linearGradient>
<linearGradient id="paint13_linear_168_4188" x1="854" y1="239" x2="854" y2="215" gradientUnits="userSpaceOnUse">
<stop stop-color="white" stop-opacity="0"/>
<stop offset="0.50284" stop-color="white"/>
<stop offset="1" stop-color="white" stop-opacity="0"/>
</linearGradient>
<linearGradient id="paint14_linear_168_4188" x1="842" y1="227" x2="866" y2="227" gradientUnits="userSpaceOnUse">
<stop stop-color="white" stop-opacity="0"/>
<stop offset="0.50284" stop-color="white"/>
<stop offset="1" stop-color="white" stop-opacity="0"/>
</linearGradient>
<clipPath id="clip0_168_4188">
<rect width="768" height="768" fill="white" transform="translate(374 -108)"/>
</clipPath>
<clipPath id="clip1_168_4188">
<rect x="374" y="-108" width="768" height="768" fill="white"/>
</clipPath>
<clipPath id="clip2_168_4188">
<rect x="374" y="-108" width="768" height="768" fill="white"/>
</clipPath>
</defs>
</svg>
