<svg width="60" height="60" viewBox="0 0 60 60" fill="none" xmlns="http://www.w3.org/2000/svg">
<path d="M30.7309 24.375C43.1247 24.375 52.4997 19.5375 52.4997 13.125C52.4997 6.7125 43.1247 1.875 30.7309 1.875C19.5559 1.875 7.49966 6.16875 7.49966 13.125C7.49966 20.0813 19.5559 24.375 30.7309 24.375ZM30.7309 5.625C41.3434 5.625 48.7497 9.58125 48.7497 13.125C48.7497 16.6687 41.3434 20.625 30.7309 20.625C20.1184 20.625 11.2497 16.5187 11.2497 13.125C11.2497 9.73125 19.9497 5.625 30.7309 5.625ZM10.7059 45.5438C10.6137 45.4589 10.5132 45.3835 10.4059 45.3188C10.3104 45.2442 10.2025 45.1871 10.0872 45.15C9.97761 45.0805 9.8572 45.0298 9.73091 45C9.42968 44.9397 9.11825 44.9543 8.824 45.0426C8.52975 45.1309 8.26169 45.2901 8.04341 45.5063C7.87779 45.6885 7.74461 45.8978 7.64966 46.125C7.54866 46.362 7.4976 46.6173 7.49966 46.875C7.49262 47.121 7.54402 47.3652 7.64966 47.5875C7.74494 47.8145 7.87808 48.0238 8.04341 48.2062C8.22566 48.3719 8.43494 48.505 8.66216 48.6C8.8866 48.6992 9.12928 48.7504 9.37466 48.7504C9.62004 48.7504 9.86272 48.6992 10.0872 48.6C10.3142 48.5047 10.5234 48.3716 10.7059 48.2062C10.8712 48.0238 11.0044 47.8145 11.0997 47.5875C11.1989 47.3631 11.2501 47.1204 11.2501 46.875C11.2501 46.6296 11.1989 46.3869 11.0997 46.1625C11.0047 45.9353 10.8715 45.726 10.7059 45.5438ZM22.8559 53.625C20.048 53.1287 17.3343 52.1989 14.8122 50.8687C14.3795 50.6201 13.8658 50.5535 13.3841 50.6836C12.9024 50.8137 12.4921 51.1299 12.2434 51.5625C11.9948 51.9951 11.9282 52.5088 12.0583 52.9906C12.1884 53.4723 12.5045 53.8826 12.9372 54.1313C15.8106 55.6565 18.9038 56.7256 22.1059 57.3H22.4622C22.9594 57.3472 23.4551 57.195 23.8402 56.8768C24.2252 56.5586 24.468 56.1004 24.5153 55.6031C24.5625 55.1058 24.4103 54.6102 24.0921 54.2251C23.7738 53.8401 23.3157 53.5972 22.8184 53.55L22.8559 53.625ZM49.4809 43.275C49.027 43.4728 48.6698 43.842 48.4871 44.3022C48.3045 44.7623 48.3112 45.276 48.5059 45.7312C48.6659 46.0914 48.7489 46.4809 48.7497 46.875C48.7497 50.4187 41.3434 54.375 30.7309 54.375H29.9997C29.5024 54.375 29.0255 54.5725 28.6738 54.9242C28.3222 55.2758 28.1247 55.7527 28.1247 56.25C28.1247 56.7473 28.3222 57.2242 28.6738 57.5758C29.0255 57.9275 29.5024 58.125 29.9997 58.125H30.7684C43.1247 58.125 52.4997 53.2875 52.4997 46.875C52.4973 45.9783 52.3123 45.0915 51.9559 44.2688C51.8598 44.0401 51.7193 43.8327 51.5425 43.6587C51.3657 43.4847 51.1561 43.3475 50.9259 43.2551C50.6957 43.1626 50.4495 43.1168 50.2014 43.1202C49.9534 43.1236 49.7085 43.1763 49.4809 43.275Z" fill="#5810ff"/>
<path d="M49.4812 20.7746C49.0274 20.9724 48.6701 21.3416 48.4875 21.8018C48.3048 22.2619 48.3116 22.7756 48.5063 23.2309C48.6662 23.591 48.7492 23.9805 48.75 24.3746C48.75 27.9184 41.3437 31.8746 30.7312 31.8746C20.1187 31.8746 11.25 27.7683 11.25 24.3746C11.253 24.0087 11.3429 23.6488 11.5125 23.3246C11.6312 23.1033 11.7042 22.8605 11.7272 22.6104C11.7502 22.3604 11.7228 22.1083 11.6465 21.869C11.5703 21.6298 11.4468 21.4083 11.2833 21.2177C11.1198 21.0272 10.9197 20.8713 10.6949 20.7596C10.47 20.6478 10.225 20.5823 9.97442 20.567C9.72379 20.5517 9.47264 20.5868 9.23587 20.6704C8.99911 20.754 8.78154 20.8843 8.59608 21.0536C8.41063 21.2229 8.26106 21.4277 8.15625 21.6559C7.72903 22.4987 7.50432 23.4296 7.5 24.3746C7.5 31.3309 19.5562 35.6246 30.7312 35.6246C43.125 35.6246 52.5 30.7871 52.5 24.3746C52.4977 23.4779 52.3127 22.5911 51.9562 21.7683C51.8602 21.5396 51.7196 21.3323 51.5428 21.1583C51.366 20.9843 51.1565 20.8471 50.9263 20.7547C50.6961 20.6622 50.4498 20.6164 50.2018 20.6198C49.9537 20.6232 49.7088 20.6759 49.4812 20.7746Z" fill="#5810ff"/>
<path d="M49.4812 32.0246C49.0274 32.2224 48.6701 32.5916 48.4875 33.0518C48.3048 33.5119 48.3116 34.0256 48.5063 34.4808C48.6662 34.841 48.7492 35.2305 48.75 35.6246C48.75 39.1684 41.3437 43.1246 30.7312 43.1246C20.1187 43.1246 11.25 39.0183 11.25 35.6246C11.253 35.2587 11.3429 34.8988 11.5125 34.5746C11.6312 34.3533 11.7042 34.1105 11.7272 33.8604C11.7502 33.6104 11.7228 33.3583 11.6465 33.119C11.5703 32.8798 11.4468 32.6583 11.2833 32.4677C11.1198 32.2772 10.9197 32.1213 10.6949 32.0096C10.47 31.8978 10.225 31.8323 9.97442 31.817C9.72379 31.8017 9.47264 31.8368 9.23587 31.9204C8.99911 32.004 8.78154 32.1343 8.59608 32.3036C8.41063 32.4729 8.26106 32.6777 8.15625 32.9058C7.72903 33.7487 7.50432 34.6796 7.5 35.6246C7.5 42.5809 19.5562 46.8746 30.7312 46.8746C43.125 46.8746 52.5 42.0371 52.5 35.6246C52.4977 34.7279 52.3127 33.8411 51.9562 33.0184C51.8602 32.7897 51.7196 32.5823 51.5428 32.4083C51.366 32.2343 51.1565 32.0971 50.9263 32.0047C50.6961 31.9122 50.4498 31.8664 50.2018 31.8698C49.9537 31.8732 49.7088 31.9259 49.4812 32.0246Z" fill="#5810ff"/>
</svg>
