<svg width="60" height="60" viewBox="0 0 60 60" fill="none" xmlns="http://www.w3.org/2000/svg">
<path d="M57.5 27.5C57.3358 27.5 57.1733 27.5323 57.0216 27.5952C56.87 27.658 56.7322 27.75 56.6161 27.8661C56.5 27.9822 56.408 28.12 56.3452 28.2716C56.2823 28.4233 56.25 28.5858 56.25 28.75V33.75C56.25 34.4066 56.1207 35.0568 55.8694 35.6634C55.6181 36.27 55.2498 36.8212 54.7855 37.2855C54.3212 37.7498 53.77 38.1181 53.1634 38.3694C52.5568 38.6207 51.9066 38.75 51.25 38.75H8.75C7.42392 38.75 6.15215 38.2232 5.21447 37.2855C4.27678 36.3479 3.75 35.0761 3.75 33.75V8.75C3.75 7.42392 4.27678 6.15215 5.21447 5.21447C6.15215 4.27678 7.42392 3.75 8.75 3.75H51.25C52.5761 3.75 53.8479 4.27678 54.7855 5.21447C55.7232 6.15215 56.25 7.42392 56.25 8.75C56.25 9.08152 56.3817 9.39946 56.6161 9.63388C56.8505 9.8683 57.1685 10 57.5 10C57.8315 10 58.1495 9.8683 58.3839 9.63388C58.6183 9.39946 58.75 9.08152 58.75 8.75C58.75 6.76088 57.9598 4.85322 56.5533 3.4467C55.1468 2.04018 53.2391 1.25 51.25 1.25H8.75C6.76088 1.25 4.85322 2.04018 3.4467 3.4467C2.04018 4.85322 1.25 6.76088 1.25 8.75V33.75C1.25 35.7391 2.04018 37.6468 3.4467 39.0533C4.85322 40.4598 6.76088 41.25 8.75 41.25H51.25C53.2391 41.25 55.1468 40.4598 56.5533 39.0533C57.9598 37.6468 58.75 35.7391 58.75 33.75V28.75C58.75 28.5858 58.7177 28.4233 58.6549 28.2716C58.592 28.12 58.5 27.9822 58.3839 27.8661C58.2678 27.75 58.13 27.658 57.9784 27.5952C57.8267 27.5323 57.6642 27.5 57.5 27.5Z" fill="#5810ff"/>
<path d="M57.5 17.5C57.1685 17.5 56.8505 17.6317 56.6161 17.8661C56.3817 18.1005 56.25 18.4185 56.25 18.75V23.75C56.25 24.0815 56.3817 24.3995 56.6161 24.6339C56.8505 24.8683 57.1685 25 57.5 25C57.8315 25 58.1495 24.8683 58.3839 24.6339C58.6183 24.3995 58.75 24.0815 58.75 23.75V18.75C58.75 18.5858 58.7177 18.4233 58.6549 18.2716C58.592 18.12 58.5 17.9822 58.3839 17.8661C58.2678 17.75 58.13 17.658 57.9784 17.5951C57.8267 17.5323 57.6642 17.5 57.5 17.5ZM56.6125 12.8625C56.4953 12.9787 56.4023 13.117 56.3389 13.2693C56.2754 13.4216 56.2428 13.585 56.2428 13.75C56.2428 13.915 56.2754 14.0784 56.3389 14.2307C56.4023 14.383 56.4953 14.5213 56.6125 14.6375C56.7287 14.7547 56.867 14.8477 57.0193 14.9111C57.1716 14.9746 57.335 15.0072 57.5 15.0072C57.665 15.0072 57.8284 14.9746 57.9807 14.9111C58.133 14.8477 58.2713 14.7547 58.3875 14.6375L58.5375 14.4375C58.587 14.3737 58.625 14.3018 58.65 14.225C58.6951 14.1558 58.7289 14.0798 58.75 14C58.7566 13.9168 58.7566 13.8332 58.75 13.75C58.7514 13.5017 58.6789 13.2586 58.5417 13.0517C58.4044 12.8448 58.2087 12.6835 57.9794 12.5883C57.75 12.4931 57.4976 12.4683 57.2541 12.5172C57.0107 12.566 56.7873 12.6862 56.6125 12.8625ZM52.5 56.25H7.5C7.16848 56.25 6.85054 56.3817 6.61612 56.6161C6.3817 56.8505 6.25 57.1685 6.25 57.5C6.25 57.8315 6.3817 58.1495 6.61612 58.3839C6.85054 58.6183 7.16848 58.75 7.5 58.75H52.5C52.8315 58.75 53.1495 58.6183 53.3839 58.3839C53.6183 58.1495 53.75 57.8315 53.75 57.5C53.75 57.1685 53.6183 56.8505 53.3839 56.6161C53.1495 56.3817 52.8315 56.25 52.5 56.25ZM40 50C40.3315 50 40.6495 49.8683 40.8839 49.6339C41.1183 49.3995 41.25 49.0815 41.25 48.75C41.25 48.4185 41.1183 48.1005 40.8839 47.8661C40.6495 47.6317 40.3315 47.5 40 47.5H20C19.6685 47.5 19.3505 47.6317 19.1161 47.8661C18.8817 48.1005 18.75 48.4185 18.75 48.75C18.75 49.0815 18.8817 49.3995 19.1161 49.6339C19.3505 49.8683 19.6685 50 20 50H40ZM41.25 22.5C41.5815 22.5 41.8995 22.3683 42.1339 22.1339C42.3683 21.8995 42.5 21.5815 42.5 21.25C42.5 20.9185 42.3683 20.6005 42.1339 20.3661C41.8995 20.1317 41.5815 20 41.25 20H38.65C38.4395 18.5583 37.8724 17.192 37 16.025L38.8375 14.1875C38.9684 14.0754 39.0746 13.9375 39.1497 13.7825C39.2247 13.6274 39.2668 13.4585 39.2735 13.2863C39.2801 13.1142 39.2511 12.9425 39.1883 12.7821C39.1255 12.6217 39.0301 12.476 38.9083 12.3542C38.7865 12.2324 38.6408 12.137 38.4804 12.0742C38.32 12.0114 38.1483 11.9824 37.9762 11.989C37.804 11.9957 37.6351 12.0378 37.48 12.1128C37.325 12.1879 37.1871 12.2941 37.075 12.425L35.225 14.25C34.058 13.3776 32.6917 12.8105 31.25 12.6V10C31.25 9.66848 31.1183 9.35054 30.8839 9.11612C30.6495 8.8817 30.3315 8.75 30 8.75C29.6685 8.75 29.3505 8.8817 29.1161 9.11612C28.8817 9.35054 28.75 9.66848 28.75 10V12.6C27.3083 12.8105 25.942 13.3776 24.775 14.25L22.925 12.4125C22.6859 12.2077 22.3783 12.1007 22.0637 12.1129C21.7491 12.125 21.4507 12.2554 21.228 12.478C21.0054 12.7007 20.875 12.9991 20.8629 13.3137C20.8507 13.6283 20.9577 13.9359 21.1625 14.175L23 16.0125C22.1257 17.1831 21.5585 18.5539 21.35 20H18.75C18.4185 20 18.1005 20.1317 17.8661 20.3661C17.6317 20.6005 17.5 20.9185 17.5 21.25C17.5 21.5815 17.6317 21.8995 17.8661 22.1339C18.1005 22.3683 18.4185 22.5 18.75 22.5H21.35C21.5605 23.9417 22.1276 25.308 23 26.475L21.1625 28.3125C21.0316 28.4246 20.9254 28.5625 20.8503 28.7175C20.7753 28.8726 20.7332 29.0415 20.7265 29.2137C20.7199 29.3858 20.7489 29.5575 20.8117 29.7179C20.8745 29.8783 20.9699 30.024 21.0917 30.1458C21.2135 30.2676 21.3592 30.363 21.5196 30.4258C21.68 30.4886 21.8517 30.5176 22.0238 30.511C22.196 30.5043 22.3649 30.4622 22.52 30.3872C22.675 30.3121 22.8129 30.2059 22.925 30.075L24.7625 28.2375C25.9318 29.1162 27.3028 29.6878 28.75 29.9V32.5C28.75 32.8315 28.8817 33.1495 29.1161 33.3839C29.3505 33.6183 29.6685 33.75 30 33.75C30.3315 33.75 30.6495 33.6183 30.8839 33.3839C31.1183 33.1495 31.25 32.8315 31.25 32.5V29.9C32.6917 29.6895 34.058 29.1224 35.225 28.25L37.0625 30.0875C37.3016 30.2923 37.6092 30.3993 37.9238 30.3871C38.2384 30.375 38.5368 30.2446 38.7595 30.022C38.9821 29.7993 39.1125 29.5009 39.1246 29.1863C39.1368 28.8717 39.0298 28.5641 38.825 28.325L37 26.475C37.8724 25.308 38.4395 23.9417 38.65 22.5H41.25ZM30 27.5C28.7639 27.5 27.5555 27.1334 26.5277 26.4467C25.4999 25.7599 24.6988 24.7838 24.2258 23.6418C23.7527 22.4997 23.6289 21.2431 23.8701 20.0307C24.1113 18.8183 24.7065 17.7047 25.5806 16.8306C26.4547 15.9565 27.5683 15.3612 28.7807 15.1201C29.9931 14.8789 31.2497 15.0027 32.3918 15.4758C33.5338 15.9488 34.5099 16.7499 35.1967 17.7777C35.8834 18.8055 36.25 20.0139 36.25 21.25C36.25 22.9076 35.5915 24.4973 34.4194 25.6694C33.2473 26.8415 31.6576 27.5 30 27.5Z" fill="#5810ff"/>
</svg>
