<svg width="60" height="60" viewBox="0 0 60 60" fill="none" xmlns="http://www.w3.org/2000/svg">
<path d="M5.08169 24.9191C4.98946 24.8342 4.88895 24.7589 4.78169 24.6941C4.68617 24.6195 4.57827 24.5624 4.46294 24.5253C4.35339 24.4558 4.23298 24.4051 4.10669 24.3753C3.86608 24.32 3.61605 24.32 3.37544 24.3753C3.25804 24.3961 3.14433 24.434 3.03794 24.4878C2.91828 24.5284 2.80473 24.5852 2.70044 24.6566L2.41919 24.8816C2.24848 25.0599 2.11468 25.2702 2.02544 25.5003C1.92624 25.7248 1.875 25.9674 1.875 26.2128C1.875 26.4582 1.92624 26.7009 2.02544 26.9253C2.12072 27.1524 2.25386 27.3616 2.41919 27.5441C2.60144 27.7097 2.81071 27.8429 3.03794 27.9378C3.2607 28.0468 3.50287 28.1106 3.75044 28.1253C3.99546 28.1224 4.23752 28.0714 4.46294 27.9753C4.68999 27.88 4.89921 27.7469 5.08169 27.5816C5.24701 27.3991 5.38016 27.1899 5.47544 26.9628C5.57463 26.7384 5.62587 26.4957 5.62587 26.2503C5.62587 26.0049 5.57463 25.7623 5.47544 25.5378C5.3862 25.3077 5.25239 25.0974 5.08169 24.9191ZM11.2504 24.9191C11.5018 24.9186 11.7505 24.8676 11.9817 24.7691L21.3567 20.7566C21.5832 20.6593 21.7884 20.5184 21.9604 20.3418C22.1325 20.1653 22.2681 19.9566 22.3595 19.7276C22.4509 19.4987 22.4963 19.254 22.4932 19.0075C22.49 18.7609 22.4383 18.5175 22.3411 18.2909C22.2438 18.0644 22.1029 17.8593 21.9263 17.6872C21.7498 17.5151 21.5411 17.3795 21.3121 17.2881C21.0832 17.1967 20.8385 17.1513 20.5919 17.1545C20.3454 17.1576 20.102 17.2093 19.8754 17.3066L10.5004 21.3191C10.1016 21.4889 9.77394 21.7918 9.57322 22.176C9.37251 22.5602 9.31113 23.0022 9.39955 23.4265C9.48796 23.8509 9.7207 24.2316 10.0582 24.5037C10.3956 24.7758 10.8169 24.9226 11.2504 24.9191Z" fill="#5810ff"/>
<path d="M58.1251 4.27488C58.1497 4.10074 58.1497 3.92401 58.1251 3.74988C58.1282 3.68742 58.1282 3.62484 58.1251 3.56238C58.1049 3.41467 58.0671 3.26989 58.0126 3.13113V2.94363C57.9377 2.7942 57.8431 2.65548 57.7313 2.53113C57.5807 2.39847 57.4098 2.29085 57.2251 2.21238H57.0563C56.8621 2.05752 56.639 1.94279 56.4001 1.87488H56.2501C56.1006 1.85681 55.9495 1.85681 55.8001 1.87488H55.6313L27.5063 13.9311C27.0488 14.1276 26.6881 14.4977 26.5035 14.9601C26.3189 15.4225 26.3255 15.9393 26.522 16.3968C26.7184 16.8543 27.0885 17.215 27.5509 17.3996C28.0133 17.5842 28.5301 17.5776 28.9876 17.3811L45.8626 10.1436L16.8751 35.0249L10.5938 29.6436C10.4067 29.4836 10.1899 29.362 9.95575 29.2857C9.72161 29.2095 9.47475 29.1801 9.22925 29.1992C8.98376 29.2184 8.74444 29.2857 8.52496 29.3973C8.30548 29.509 8.11014 29.6627 7.95009 29.8499C7.79005 30.037 7.66842 30.2538 7.59217 30.488C7.51592 30.7221 7.48653 30.969 7.50568 31.2145C7.52483 31.46 7.59215 31.6993 7.70379 31.9188C7.81543 32.1382 7.96921 32.3336 8.15634 32.4936L14.7001 38.1186L9.46884 53.7749C9.46883 53.9374 9.46883 54.0999 9.46884 54.2624C9.44596 54.4304 9.44596 54.6007 9.46884 54.7686V54.8999C9.50475 54.9971 9.54865 55.0912 9.60009 55.1811C9.63692 55.2719 9.6808 55.3597 9.73134 55.4436L9.90009 55.6124C9.9787 55.7083 10.0666 55.7963 10.1626 55.8749H10.3688L10.6876 56.0249H10.9688L11.2501 56.2499H11.7188L30.1501 50.6249L38.1563 57.6186C38.3863 57.8412 38.6693 58.0013 38.9785 58.0835C39.2878 58.1658 39.613 58.1675 39.9231 58.0886C40.2332 58.0096 40.5179 57.8527 40.7502 57.6325C40.9825 57.4124 41.1546 57.1365 41.2501 56.8311L58.1251 4.33113V4.27488ZM23.1001 41.7749L15.1688 48.5436L18.4876 38.5874L41.8313 18.5811L23.1001 41.7749ZM19.3501 49.9874L24.3751 45.5999L26.8313 47.7374L19.3501 49.9874ZM38.6251 52.9124L27.1313 42.8624L51.5063 12.6936L38.6251 52.9124Z" fill="#5810ff"/>
</svg>
